<?xml version="1.0" encoding="UTF-8" standalone="no"?>
<!-- Created with Inkscape (http://www.inkscape.org/) -->

<svg
   xmlns:dc="http://purl.org/dc/elements/1.1/"
   xmlns:cc="http://creativecommons.org/ns#"
   xmlns:rdf="http://www.w3.org/1999/02/22-rdf-syntax-ns#"
   xmlns:svg="http://www.w3.org/2000/svg"
   xmlns="http://www.w3.org/2000/svg"
   version="1.1"
   width="46"
   height="41"
   id="svg3622">
  <defs
     id="defs3624" />
  <metadata
     id="metadata3627">
    <rdf:RDF>
      <cc:Work
         rdf:about="">
        <dc:format>image/svg+xml</dc:format>
        <dc:type
           rdf:resource="http://purl.org/dc/dcmitype/StillImage" />
        <dc:title></dc:title>
      </cc:Work>
    </rdf:RDF>
  </metadata>
  <g
     transform="translate(-352,-511.86218)"
     id="layer1">
    <path
       d="m 357,531.86218 0,21 6,0 c 0,0.0269 0,-21 0,-21 z m 1,1 4,0 0,9 -4,0 z"
       id="path4188-1"
       style="font-size:medium;font-style:normal;font-variant:normal;font-weight:normal;font-stretch:normal;text-indent:0;text-align:start;text-decoration:none;line-height:normal;letter-spacing:normal;word-spacing:normal;text-transform:none;direction:ltr;block-progression:tb;writing-mode:lr-tb;text-anchor:start;baseline-shift:baseline;color:#000000;fill:#000000;fill-opacity:1;fill-rule:evenodd;stroke:none;visibility:visible;display:inline;overflow:visible;enable-background:accumulate;font-family:sans-serif" />
    <path
       d="m 367,521.86218 c -0.0442,-0.008 0,31 0,31 l 6,0 0,-31 z m 1,1 4,0 0,14 -4,0 z"
       id="path4192-7"
       style="font-size:medium;font-style:normal;font-variant:normal;font-weight:normal;font-stretch:normal;text-indent:0;text-align:start;text-decoration:none;line-height:normal;letter-spacing:normal;word-spacing:normal;text-transform:none;direction:ltr;block-progression:tb;writing-mode:lr-tb;text-anchor:start;baseline-shift:baseline;color:#000000;fill:#000000;fill-opacity:1;fill-rule:evenodd;stroke:none;visibility:visible;display:inline;overflow:visible;enable-background:accumulate;font-family:sans-serif" />
    <path
       d="m 377,541.86218 0,11 6,0 c -0.0442,0.001 0,-11 0,-11 z m 1,1 4,0 0,4 -4,0 z"
       id="path4196-4"
       style="font-size:medium;font-style:normal;font-variant:normal;font-weight:normal;font-stretch:normal;text-indent:0;text-align:start;text-decoration:none;line-height:normal;letter-spacing:normal;word-spacing:normal;text-transform:none;direction:ltr;block-progression:tb;writing-mode:lr-tb;text-anchor:start;baseline-shift:baseline;color:#000000;fill:#000000;fill-opacity:1;fill-rule:evenodd;stroke:none;visibility:visible;display:inline;overflow:visible;enable-background:accumulate;font-family:sans-serif" />
    <path
       d="m 387,511.86218 0,41 6,0 c 0,0 0,-40.98933 0,-41 z m 1,1 4,0 0,19 -4,0 z"
       id="path4201-0"
       style="font-size:medium;font-style:normal;font-variant:normal;font-weight:normal;font-stretch:normal;text-indent:0;text-align:start;text-decoration:none;line-height:normal;letter-spacing:normal;word-spacing:normal;text-transform:none;direction:ltr;block-progression:tb;writing-mode:lr-tb;text-anchor:start;baseline-shift:baseline;color:#000000;fill:#000000;fill-opacity:1;fill-rule:evenodd;stroke:none;visibility:visible;display:inline;overflow:visible;enable-background:accumulate;font-family:sans-serif" />
  </g>
</svg>
