<?xml version="1.0" encoding="UTF-8" standalone="no"?>
<!-- Created with Inkscape (http://www.inkscape.org/) -->

<svg
   xmlns:dc="http://purl.org/dc/elements/1.1/"
   xmlns:cc="http://creativecommons.org/ns#"
   xmlns:rdf="http://www.w3.org/1999/02/22-rdf-syntax-ns#"
   xmlns:svg="http://www.w3.org/2000/svg"
   xmlns="http://www.w3.org/2000/svg"
   version="1.1"
   width="46"
   height="41"
   id="svg3692">
  <defs
     id="defs3694" />
  <metadata
     id="metadata3697">
    <rdf:RDF>
      <cc:Work
         rdf:about="">
        <dc:format>image/svg+xml</dc:format>
        <dc:type
           rdf:resource="http://purl.org/dc/dcmitype/StillImage" />
        <dc:title></dc:title>
      </cc:Work>
    </rdf:RDF>
  </metadata>
  <g
     id="g3793">
    <path
       d="m 22.96875,16.181251 a 2.50025,2.50025 0 0 0 -1.75,0.75 L 5.6875006,32.462501 a 2.50025,2.50025 0 1 0 3.5312499,3.53125 L 23,22.243751 l 13.78125,13.75 a 2.50025,2.50025 0 1 0 3.53125,-3.53125 L 24.78125,16.931251 a 2.50025,2.50025 0 0 0 -1.8125,-0.75 z"
       id="path3782"
       style="font-size:medium;font-style:normal;font-variant:normal;font-weight:normal;font-stretch:normal;text-indent:0;text-align:start;text-decoration:none;line-height:normal;letter-spacing:normal;word-spacing:normal;text-transform:none;direction:ltr;block-progression:tb;writing-mode:lr-tb;text-anchor:start;baseline-shift:baseline;color:#000000;fill:#000000;fill-opacity:1;stroke:none;stroke-width:5;marker:none;visibility:visible;display:inline;overflow:visible;enable-background:accumulate;font-family:Sans;-inkscape-font-specification:Sans" />
    <path
       d="m 22.96875,4.181251 a 2.50025,2.50025 0 0 0 -1.75,0.75 L 5.6875007,20.462501 a 2.50025,2.50025 0 1 0 3.5312499,3.53125 L 23,10.243751 l 13.78125,13.75 a 2.50025,2.50025 0 1 0 3.53125,-3.53125 L 24.78125,4.931251 a 2.50025,2.50025 0 0 0 -1.8125,-0.75 z"
       id="path3782-1"
       style="font-size:medium;font-style:normal;font-variant:normal;font-weight:normal;font-stretch:normal;text-indent:0;text-align:start;text-decoration:none;line-height:normal;letter-spacing:normal;word-spacing:normal;text-transform:none;direction:ltr;block-progression:tb;writing-mode:lr-tb;text-anchor:start;baseline-shift:baseline;color:#000000;fill:#000000;fill-opacity:1;stroke:none;stroke-width:5;marker:none;visibility:visible;display:inline;overflow:visible;enable-background:accumulate;font-family:Sans;-inkscape-font-specification:Sans" />
  </g>
</svg>
