<svg xmlns="http://www.w3.org/2000/svg" width="46" height="41"><g color="#000" font-family="Sans"><path d="M7.41388524 16.22721445a2.50025 2.50025 0 0 0-1.75 4.3125l15.53125 15.53125a2.50025 2.50025 0 0 0 3.5625 0l15.53125-15.53125a2.50025 2.50025 0 1 0-3.53125-3.53125l-13.78125 13.75-13.78125-13.75a2.50025 2.50025 0 0 0-1.78125-.78125z" style="text-indent:0;text-align:start;line-height:normal;text-transform:none;block-progression:tb;-inkscape-font-specification:Sans" overflow="visible"/><path d="M7.41388524 4.22721445a2.50025 2.50025 0 0 0-1.75 4.3125l15.53125 15.53125a2.50025 2.50025 0 0 0 3.5625 0l15.53125-15.53125a2.50025 2.50025 0 1 0-3.53125-3.53125l-13.78125 13.75-13.78125-13.75a2.50025 2.50025 0 0 0-1.78125-.78125z" style="text-indent:0;text-align:start;line-height:normal;text-transform:none;block-progression:tb;-inkscape-font-specification:Sans" overflow="visible"/></g></svg>