<?xml version="1.0" encoding="UTF-8" standalone="no"?>
<svg
   xmlns:dc="http://purl.org/dc/elements/1.1/"
   xmlns:cc="http://creativecommons.org/ns#"
   xmlns:rdf="http://www.w3.org/1999/02/22-rdf-syntax-ns#"
   xmlns:svg="http://www.w3.org/2000/svg"
   xmlns="http://www.w3.org/2000/svg"
   id="svg3369"
   height="41"
   width="46"
   version="1.1">
  <defs
     id="defs3371" />
  <metadata
     id="metadata3374">
    <rdf:RDF>
      <cc:Work
         rdf:about="">
        <dc:format>image/svg+xml</dc:format>
        <dc:type
           rdf:resource="http://purl.org/dc/dcmitype/StillImage" />
        <dc:title></dc:title>
      </cc:Work>
    </rdf:RDF>
  </metadata>
  <path
     id="path4147"
     d="M 34 6 L 34 19.5 L 31 19.5 L 31 11 L 29 11 L 29 19.5 L 26 19.5 L 26 13 L 24 13 L 24 19.5 L 21 19.5 L 21 14 L 19 14 L 19 19.5 L 16 19.5 L 16 16 L 14 16 L 14 19.5 L 11 19.5 L 11 18 L 9 18 L 9 19.5 L 5 19.5 L 5 22.5 L 9 22.5 L 9 26 L 11 26 L 11 22.5 L 14 22.5 L 14 36 L 16 36 L 16 22.5 L 19 22.5 L 19 29 L 21 29 L 21 22.5 L 24 22.5 L 24 24 L 26 24 L 26 22.5 L 29 22.5 L 29 31 L 31 31 L 31 22.5 L 34 22.5 L 34 28 L 36 28 L 36 22.5 L 40 22.5 L 40 19.5 L 36 19.5 L 36 6 L 34 6 z "
     style="color:#000000;font-style:normal;font-variant:normal;font-weight:normal;font-stretch:normal;font-size:medium;line-height:normal;font-family:sans-serif;text-indent:0;text-align:start;text-decoration:none;text-decoration-line:none;text-decoration-style:solid;text-decoration-color:#000000;letter-spacing:normal;word-spacing:normal;text-transform:none;direction:ltr;block-progression:tb;writing-mode:lr-tb;baseline-shift:baseline;text-anchor:start;white-space:normal;clip-rule:nonzero;display:inline;overflow:visible;visibility:visible;opacity:1;isolation:auto;mix-blend-mode:normal;color-interpolation:sRGB;color-interpolation-filters:linearRGB;solid-color:#000000;solid-opacity:1;fill:#000000;fill-opacity:1;fill-rule:evenodd;stroke:none;stroke-width:3;stroke-linecap:butt;stroke-linejoin:miter;stroke-miterlimit:4;stroke-dasharray:none;stroke-dashoffset:0;stroke-opacity:1;color-rendering:auto;image-rendering:auto;shape-rendering:auto;text-rendering:auto;enable-background:accumulate" />
</svg>
