<svg xmlns="http://www.w3.org/2000/svg" viewBox="0 0 42.338204 41.499999"><g fill-rule="evenodd" color="#000" font-family="sans-serif" white-space="normal"><path d="M20.43945 0L10 10.43945V31.0625L20.43945 41.5H26.5V0zm.6211 1.5H25V40h-3.93945L11.5 30.43945V11.0625zM0 10v21.5h8.5V10zM28.53275 11.414849v1.314805s.149923-.0044.477642.104431c.32772.109243.777682.32914 1.24804.799498.940717.940717 1.9996 2.93092 1.9996 7.204038 0 4.273117-1.058883 6.26503-1.9996 7.205747-.470358.470358-.92032.690255-1.24804.799498-.327719.109243-.477642.102721-.477642.102721v1.314806s.397913-.0044.891946-.169487c.494034-.164675 1.139744-.492614 1.765057-1.117927 1.250625-1.250625 2.383084-3.643106 2.383084-8.135358 0-4.492252-1.132459-6.883024-2.383084-8.133649-.625313-.625313-1.271023-.953252-1.765057-1.117927-.494033-.164675-.891946-.171196-.891946-.171196z" style="line-height:normal;text-indent:0;text-align:start;text-decoration-line:none;text-decoration-style:solid;text-decoration-color:#000000;text-transform:none;block-progression:tb;isolation:auto;mix-blend-mode:normal" overflow="visible" solid-color="#000000"/><path d="M28.53275 7.0321644v1.3148054s1.965879-.00351 3.988927 1.5133936c2.023047 1.5172856 4.11904 4.5493146 4.11904 10.9772576 0 6.427934-2.095993 9.461681-4.11904 10.978967-2.023048 1.517285-3.988927 1.511684-3.988927 1.511684v1.314805s2.416805-.0035 4.776443-1.773619c2.359637-1.769728 4.646329-5.311727 4.646329-12.031837 0-6.720119-2.286692-10.260399-4.646329-12.0301275-2.359638-1.769728-4.776443-1.7753291-4.776443-1.7753291z" style="line-height:normal;text-indent:0;text-align:start;text-decoration-line:none;text-decoration-style:solid;text-decoration-color:#000000;text-transform:none;block-progression:tb;isolation:auto;mix-blend-mode:normal" overflow="visible" solid-color="#000000"/><path d="M28.53275 2.6494798v1.3148054s3.090669.00263 6.20937 2.0817752c3.11871 2.0791368 6.281281 6.1905416 6.281281 14.7915606 0 8.601018-3.162571 12.714133-6.281281 14.79327-3.118701 2.079137-6.20937 2.080066-6.20937 2.080066v1.314805s3.483358.0026 6.938684-2.300909c3.455317-2.303548 6.866772-6.957512 6.866772-15.887232S38.926751 7.2556463 35.471434 4.9520985c-3.455326-2.3035478-6.938684-2.3026187-6.938684-2.3026187z" style="line-height:normal;text-indent:0;text-align:start;text-decoration-line:none;text-decoration-style:solid;text-decoration-color:#000000;text-transform:none;block-progression:tb;isolation:auto;mix-blend-mode:normal" overflow="visible" solid-color="#000000"/></g></svg>