<svg xmlns="http://www.w3.org/2000/svg" viewBox="0 0 40.937339 40.902182"><path fill-rule="evenodd" d="M15.48243 0l-3.53516 3.535156 13.94727 13.947266s1.31152 1.363244 2.0039 3.1875c.69239 1.824256.99606 3.560583-1.33594 5.892578-2.33198 2.331996-4.07027 2.030273-5.89453 1.337891-1.82425-.692383-3.18554-2.00586-3.18554-2.00586L3.53516 11.947266 0 15.484375l13.94727 13.947266s1.9572 2.00772 4.94727 3.142578c2.65369 1.007191 6.5517 1.139209 9.9414-1.388672l3.79297 3.792969a4.3125 4.3125 0 0 0 .94531 4.660156 4.3125 4.3125 0 0 0 6.09961 0 4.3125 4.3125 0 0 0 0-6.09961 4.3125 4.3125 0 0 0-4.52929-.996093l-3.84961-3.847657c2.4202-3.356265 2.27251-7.183908 1.27929-9.800781-1.13485-2.990063-3.14453-4.947265-3.14453-4.947265L15.48243 0z" style="line-height:normal;text-indent:0;text-align:start;text-decoration-line:none;text-decoration-style:solid;text-decoration-color:#000000;text-transform:none;block-progression:tb;isolation:auto;mix-blend-mode:normal" color="#000" font-family="sans-serif" white-space="normal" overflow="visible" solid-color="#000000"/></svg>